<svg width="50" height="50" viewBox="0 0 50 50" fill="none" xmlns="http://www.w3.org/2000/svg">
<path d="M25 0.625C11.5384 0.625 0.625 11.5384 0.625 25C0.625 36.5097 8.605 46.15 19.3328 48.7056C18.7778 48.5734 18.2275 48.4253 17.6875 48.2566V42.6719C17.6875 42.6719 16.7734 42.9766 15.5547 42.9766C12.145 42.9766 10.7284 39.9344 10.375 38.4062C10.1603 37.4753 9.59969 36.5931 8.99781 36.0541C8.27875 35.4128 7.94219 35.4109 7.9375 35.1916C7.92813 34.7312 8.55437 34.75 8.85156 34.75C10.375 34.75 11.53 36.3709 12.0663 37.2091C13.3947 39.2781 14.8206 39.625 15.5547 39.625C16.4687 39.625 17.2581 39.4881 17.8019 39.2256C18.0531 37.4556 18.8406 35.8787 20.125 34.75C14.4091 33.6072 10.375 30.3288 10.375 25C10.375 22.255 11.4766 19.7322 13.3122 17.695C13.1247 17.1634 12.8125 16.0881 12.8125 14.3359C12.8125 13.1781 12.8931 11.7569 13.4219 10.375C13.4219 10.375 16.8981 10.3994 20.1766 13.5044C21.6897 13.0638 23.3088 12.8125 25 12.8125C26.6912 12.8125 28.3103 13.0638 29.8234 13.5044C33.1019 10.3994 36.5781 10.375 36.5781 10.375C37.1097 11.7569 37.1875 13.1781 37.1875 14.3359C37.1875 16.225 36.9363 17.3266 36.7825 17.8019C38.5619 19.8203 39.625 22.3038 39.625 25C39.625 30.3288 35.5909 33.6072 29.875 34.75C31.4013 36.0906 32.3125 38.0434 32.3125 40.2344V48.2566C31.7725 48.4263 31.2231 48.5734 30.6672 48.7056C41.395 46.15 49.375 36.5097 49.375 25C49.375 11.5384 38.4616 0.625 25 0.625ZM26.6997 49.3094C26.1381 49.3488 25.5719 49.375 25 49.375C25.5719 49.375 26.1372 49.3478 26.6997 49.3094ZM25 49.375C24.4281 49.375 23.8619 49.3488 23.3003 49.3094C23.8628 49.3478 24.4281 49.375 25 49.375ZM22.9263 49.2812C21.7853 49.1847 20.6659 49.0103 19.5756 48.7619C20.6669 49.0094 21.7853 49.1847 22.9263 49.2812Z" fill="white"/>
</svg>
