<svg width="54" height="54" viewBox="0 0 54 54" fill="none" xmlns="http://www.w3.org/2000/svg">
<path d="M16.2001 0.599976C7.59908 0.599976 0.600098 7.59896 0.600098 16.2V37.8C0.600098 46.401 7.59908 53.4 16.2001 53.4H37.8001C46.4011 53.4 53.4001 46.401 53.4001 37.8V16.2C53.4001 7.59896 46.4011 0.599976 37.8001 0.599976H16.2001ZM16.2001 2.99998H37.8001C45.1039 2.99998 51.0001 8.89619 51.0001 16.2V37.8C51.0001 45.1038 45.1039 51 37.8001 51H16.2001C8.89632 51 3.0001 45.1038 3.0001 37.8V16.2C3.0001 8.89619 8.89632 2.99998 16.2001 2.99998ZM41.4001 10.2C40.7636 10.2 40.1531 10.4528 39.703 10.9029C39.2529 11.353 39.0001 11.9635 39.0001 12.6C39.0001 13.2365 39.2529 13.8469 39.703 14.297C40.1531 14.7471 40.7636 15 41.4001 15C42.0366 15 42.6471 14.7471 43.0972 14.297C43.5472 13.8469 43.8001 13.2365 43.8001 12.6C43.8001 11.9635 43.5472 11.353 43.0972 10.9029C42.6471 10.4528 42.0366 10.2 41.4001 10.2ZM27.0001 13.8C19.7242 13.8 13.8001 19.724 13.8001 27C13.8001 34.2759 19.7242 40.2 27.0001 40.2C34.276 40.2 40.2001 34.2759 40.2001 27C40.2001 19.724 34.276 13.8 27.0001 13.8ZM27.0001 16.2C32.979 16.2 37.8001 21.0211 37.8001 27C37.8001 32.9789 32.979 37.8 27.0001 37.8C21.0212 37.8 16.2001 32.9789 16.2001 27C16.2001 21.0211 21.0212 16.2 27.0001 16.2Z" fill="white"/>
</svg>
