<svg width="52" height="52" viewBox="0 0 52 52" fill="none" xmlns="http://www.w3.org/2000/svg">
<path d="M6.80005 0.800049C3.50063 0.800049 0.800049 3.50063 0.800049 6.80005V45.2001C0.800049 48.4995 3.50063 51.2001 6.80005 51.2001H45.2001C48.4995 51.2001 51.2001 48.4995 51.2001 45.2001V6.80005C51.2001 3.50063 48.4995 0.800049 45.2001 0.800049H6.80005ZM6.80005 3.20005H45.2001C47.2022 3.20005 48.8 4.79787 48.8 6.80005V45.2001C48.8 47.2022 47.2022 48.8 45.2001 48.8H6.80005C4.79787 48.8 3.20005 47.2022 3.20005 45.2001V6.80005C3.20005 4.79787 4.79787 3.20005 6.80005 3.20005ZM12.8 9.21411C11.4858 9.21411 10.3031 9.60694 9.42739 10.3438C8.55167 11.0807 8.01411 12.1815 8.01411 13.3602C8.01411 15.6008 9.95759 17.3476 12.4297 17.5204L12.4344 17.5227C12.5522 17.5629 12.6756 17.5842 12.8 17.586C15.5277 17.586 17.586 15.6753 17.586 13.3602C17.5858 13.3391 17.585 13.318 17.5836 13.2969C17.4615 11.0166 15.4286 9.21411 12.8 9.21411ZM12.8 11.586C14.4707 11.586 15.1304 12.3321 15.2024 13.3907C15.1878 14.4182 14.5522 15.2141 12.8 15.2141C11.1376 15.2141 10.386 14.3627 10.386 13.3602C10.386 12.8589 10.5689 12.4812 10.9532 12.1579C11.3375 11.8345 11.9543 11.586 12.8 11.586ZM9.20005 18.8C8.8818 18.8001 8.57659 18.9265 8.35156 19.1516C8.12652 19.3766 8.00008 19.6818 8.00005 20V42.8C8.00008 43.1183 8.12652 43.4235 8.35156 43.6485C8.57659 43.8736 8.8818 44 9.20005 44H16.4C16.7183 44 17.0235 43.8736 17.2485 43.6485C17.4736 43.4235 17.6 43.1183 17.6 42.8V35.7618V20C17.6 19.6818 17.4736 19.3766 17.2485 19.1516C17.0235 18.9265 16.7183 18.8001 16.4 18.8H9.20005ZM20 18.8C19.6818 18.8001 19.3766 18.9265 19.1516 19.1516C18.9265 19.3766 18.8001 19.6818 18.8 20V42.8C18.8001 43.1183 18.9265 43.4235 19.1516 43.6485C19.3766 43.8736 19.6818 44 20 44H27.2001C27.5183 44 27.8235 43.8736 28.0485 43.6485C28.2736 43.4235 28.4 43.1183 28.4 42.8V30.8001C28.4 29.8044 28.6717 28.8141 29.15 28.1657C29.6284 27.5173 30.2318 27.1281 31.379 27.1485C32.5618 27.1688 33.188 27.5741 33.6618 28.2102C34.1355 28.8464 34.4001 29.8001 34.4001 30.8001V42.8C34.4001 43.1183 34.5265 43.4235 34.7516 43.6485C34.9766 43.8736 35.2818 44 35.6001 44H42.8C43.1183 44 43.4235 43.8736 43.6485 43.6485C43.8736 43.4235 44 43.1183 44 42.8V29.9141C44 26.3603 42.9474 23.5452 41.143 21.6407C39.3386 19.7361 36.8291 18.8 34.175 18.8C31.6526 18.8 29.7331 19.6459 28.4 20.5086V20C28.4 19.6818 28.2736 19.3766 28.0485 19.1516C27.8235 18.9265 27.5183 18.8001 27.2001 18.8H20ZM10.4 21.2001H15.2V35.7618V41.6001H10.4V21.2001ZM21.2001 21.2001H26V23.0727C26.0001 23.3243 26.0793 23.5696 26.2263 23.7737C26.3734 23.9779 26.5809 24.1307 26.8195 24.2105C27.0582 24.2903 27.3159 24.2931 27.5562 24.2185C27.7965 24.1438 28.0072 23.9955 28.1586 23.7946C28.1586 23.7946 30.0431 21.2001 34.175 21.2001C36.279 21.2001 38.0833 21.8991 39.4016 23.2907C40.7199 24.6822 41.6001 26.826 41.6001 29.9141V41.6001H36.8V30.8001C36.8 29.4 36.4646 27.9526 35.5883 26.7758C34.7121 25.5991 33.2383 24.7797 31.4211 24.7485C29.5947 24.7161 28.0971 25.5524 27.2188 26.743C26.3405 27.9336 26 29.3957 26 30.8001V41.6001H21.2001V21.2001Z" fill="white"/>
</svg>
