<svg width="56" height="56" viewBox="0 0 56 56" fill="none" xmlns="http://www.w3.org/2000/svg">
<path d="M27.9999 0.400024C12.7713 0.400024 0.399902 12.7715 0.399902 28C0.399902 32.8949 1.74233 37.4631 3.98115 41.4508L0.444434 54.0766C0.387931 54.2786 0.385378 54.492 0.437029 54.6953C0.48868 54.8986 0.592731 55.0849 0.738806 55.2354C0.884881 55.386 1.06788 55.4957 1.26955 55.5535C1.47122 55.6113 1.68452 55.6152 1.88818 55.5649L15.053 52.3024C18.9215 54.3675 23.311 55.6 27.9999 55.6C43.2285 55.6 55.5999 43.2286 55.5999 28C55.5999 12.7715 43.2285 0.400024 27.9999 0.400024ZM27.9999 2.80002C41.9313 2.80002 53.1999 14.0686 53.1999 28C53.1999 41.9315 41.9313 53.2 27.9999 53.2C23.5335 53.2 19.3504 52.0356 15.714 50.0008C15.448 49.8522 15.1355 49.8103 14.8397 49.8836L3.31084 52.7407L6.40225 41.711C6.44648 41.5551 6.4587 41.3919 6.43815 41.2312C6.41761 41.0704 6.36473 40.9155 6.28271 40.7758C4.07273 37.0283 2.7999 32.6682 2.7999 28C2.7999 14.0686 14.0685 2.80002 27.9999 2.80002ZM17.971 13.6C17.2017 13.6 16.1032 13.8862 15.2007 14.8586C14.6586 15.4427 12.3999 17.6434 12.3999 21.5125C12.3999 25.5464 15.1976 29.027 15.5358 29.4742H15.5382V29.4766C15.5061 29.4344 15.9675 30.1027 16.5835 30.9039C17.1995 31.7052 18.0608 32.7576 19.1429 33.8969C21.307 36.1755 24.3498 38.8089 28.1265 40.4196C29.8657 41.1602 31.2377 41.6073 32.2772 41.9336C34.2037 42.5385 35.9584 42.4466 37.2765 42.2524C38.2631 42.1071 39.3482 41.6334 40.4218 40.9539C41.4954 40.2745 42.5476 39.4297 43.0116 38.1461C43.344 37.2259 43.513 36.3755 43.5741 35.6758C43.6047 35.3259 43.6086 35.0171 43.5858 34.7313C43.5631 34.4454 43.5874 34.2264 43.321 33.7891C42.7623 32.8718 42.1296 32.8479 41.4694 32.5211C41.1026 32.3396 40.0583 31.8296 39.0108 31.3305C37.9646 30.8319 37.0586 30.3904 36.5007 30.1914C36.1482 30.0646 35.7178 29.882 35.0968 29.9524C34.4758 30.0227 33.8625 30.4707 33.5054 31C33.1669 31.5017 31.8044 33.11 31.389 33.5828C31.3834 33.5795 31.4195 33.5961 31.2554 33.5149C30.7416 33.2606 30.1133 33.0444 29.1835 32.5539C28.2537 32.0635 27.0906 31.3392 25.8179 30.2172V30.2149C23.9235 28.5472 22.5966 26.4534 22.178 25.75C22.2062 25.7165 22.1747 25.7571 22.2343 25.6985L22.2366 25.6961C22.6644 25.2747 23.0436 24.7715 23.364 24.4024C23.8182 23.8791 24.0187 23.4177 24.2358 22.9867C24.6686 22.1278 24.4277 21.1825 24.1772 20.6852V20.6828C24.1945 20.7172 24.0418 20.3802 23.8772 19.9914C23.7122 19.6015 23.5019 19.0961 23.2772 18.5571C22.8279 17.479 22.3263 16.2699 22.028 15.5617V15.5594C21.6766 14.7252 21.2012 14.1243 20.5796 13.8344C19.958 13.5445 19.4088 13.6269 19.3866 13.6258H19.3843C18.9407 13.6053 18.4539 13.6 17.971 13.6ZM17.971 16C18.4336 16 18.8898 16.0057 19.2718 16.0235C19.6648 16.043 19.6403 16.0447 19.5647 16.0094C19.488 15.9736 19.5921 15.962 19.8155 16.4922C20.1076 17.1856 20.6117 18.3991 21.0624 19.4805C21.2878 20.0212 21.4987 20.5286 21.6671 20.9266C21.8355 21.3246 21.9268 21.5468 22.0327 21.7586V21.761L22.0351 21.7633C22.1389 21.9682 22.1297 21.837 22.0937 21.9086C21.8404 22.4112 21.8061 22.5346 21.5499 22.8297C21.1599 23.279 20.762 23.7801 20.5515 23.9875C20.3672 24.1685 20.0348 24.4505 19.8272 25.0024C19.6194 25.5551 19.7164 26.3135 20.0499 26.8797C20.4939 27.6335 21.9572 30.0152 24.2312 32.0172C25.6632 33.2796 26.9974 34.1151 28.0632 34.6774C29.129 35.2396 29.9971 35.568 30.1913 35.6641C30.6526 35.8924 31.1567 36.0696 31.7429 35.9992C32.3291 35.9289 32.8344 35.5732 33.1562 35.2094L33.1585 35.2071C33.5867 34.7216 34.8589 33.2689 35.4694 32.3735C35.4953 32.3826 35.4868 32.3755 35.6897 32.4485V32.4508H35.6921C35.7847 32.4838 36.945 33.0031 37.9796 33.4961C39.0141 33.9891 40.0642 34.5015 40.4054 34.6703C40.8978 34.914 41.1304 35.0727 41.1905 35.0735C41.1946 35.179 41.1987 35.2935 41.1835 35.4672C41.1414 35.9492 41.0126 36.6163 40.7546 37.3305C40.6282 37.6801 39.9699 38.4012 39.1397 38.9266C38.3096 39.452 37.2991 39.823 36.9249 39.8782C35.7998 40.0439 34.4639 40.1045 32.9968 39.6438C31.9795 39.3245 30.7111 38.9111 29.0687 38.2117C25.7377 36.7912 22.9066 34.3738 20.8843 32.2446C19.8731 31.1799 19.063 30.1888 18.4866 29.4391C17.9113 28.6907 17.6601 28.3013 17.4507 28.0258L17.4483 28.0235C17.0765 27.5318 14.7999 24.365 14.7999 21.5125C14.7999 18.4936 16.2021 17.3097 16.9608 16.4922C17.3592 16.063 17.7946 16 17.971 16Z" fill="white"/>
</svg>
